<?xml version="1.0" encoding="UTF-8"?>
<svg width="17px" height="13px" viewBox="0 0 17 13" version="1.1" xmlns="http://www.w3.org/2000/svg" xmlns:xlink="http://www.w3.org/1999/xlink">
    <!-- Generator: Sketch 53.1 (72631) - https://sketchapp.com -->
    <title>路径 copy</title>
    <desc>Created with Sketch.</desc>
    <g id="web" stroke="none" stroke-width="1" fill="none" fill-rule="evenodd">
        <g id="专栏" transform="translate(-886.000000, -310.000000)" fill="#8590A6" fill-rule="nonzero">
            <path d="M903,323 C903,323 901.40625,313.575 893.11875,313.575 L893.11875,311.133615 C893.11875,310.857473 892.894892,310.633615 892.61875,310.633615 C892.493991,310.633615 892.373739,310.680256 892.281608,310.764379 L886.418546,316.117833 C886.214623,316.304032 886.200254,316.620288 886.386453,316.824211 C886.400508,316.839604 886.415512,316.854103 886.431377,316.867623 L892.294438,321.86418 C892.504612,322.043293 892.820192,322.018112 892.999304,321.807938 C893.076403,321.717468 893.11875,321.602491 893.11875,321.483626 L893.11875,318.45 C897.58125,318.45 900.6625,318.775 903,323 Z" id="路径-copy"></path>
        </g>
    </g>
</svg>