<?xml version="1.0" encoding="UTF-8"?>
<svg width="17px" height="13px" viewBox="0 0 17 13" version="1.1" xmlns="http://www.w3.org/2000/svg" xmlns:xlink="http://www.w3.org/1999/xlink">
    <!-- Generator: Sketch 53.1 (72631) - https://sketchapp.com -->
    <title>路径 copy 2</title>
    <desc>Created with Sketch.</desc>
    <g id="web" stroke="none" stroke-width="1" fill="none" fill-rule="evenodd">
        <g id="专栏" transform="translate(-933.000000, -310.000000)" fill="#8590A6" fill-rule="nonzero">
            <path d="M950,323 C950,323 948.40625,313.575 940.11875,313.575 L940.11875,311.133615 C940.11875,310.857473 939.894892,310.633615 939.61875,310.633615 C939.493991,310.633615 939.373739,310.680256 939.281608,310.764379 L933.418546,316.117833 C933.214623,316.304032 933.200254,316.620288 933.386453,316.824211 C933.400508,316.839604 933.415512,316.854103 933.431377,316.867623 L939.294438,321.86418 C939.504612,322.043293 939.820192,322.018112 939.999304,321.807938 C940.076403,321.717468 940.11875,321.602491 940.11875,321.483626 L940.11875,318.45 C944.58125,318.45 947.6625,318.775 950,323 Z" id="路径-copy-2" transform="translate(941.500000, 316.500000) scale(-1, -1) translate(-941.500000, -316.500000) "></path>
        </g>
    </g>
</svg>