<?xml version="1.0" encoding="UTF-8"?>
<svg width="17px" height="14px" viewBox="0 0 17 14" version="1.1" xmlns="http://www.w3.org/2000/svg" xmlns:xlink="http://www.w3.org/1999/xlink">
    <!-- Generator: Sketch 53.1 (72631) - https://sketchapp.com -->
    <title>分组 12</title>
    <desc>Created with Sketch.</desc>
    <g id="web" stroke="none" stroke-width="1" fill="none" fill-rule="evenodd">
        <g id="专栏" transform="translate(-763.000000, -309.000000)">
            <g id="分组-12" transform="translate(763.000000, 309.000000)">
                <rect id="矩形-copy-13" fill="#8590A6" x="0" y="0" width="13" height="14" rx="1.5"></rect>
                <path d="M7.27616714,5.47874034 L8.89307195,8.1735817 C9.03514603,8.41037183 8.9583635,8.71750196 8.72157336,8.85957604 C8.64386566,8.90620066 8.55494746,8.93082957 8.46432549,8.93082957 L5.23051586,8.93082957 C4.95437349,8.93082957 4.73051586,8.70697195 4.73051586,8.43082957 C4.73051586,8.3402076 4.75514478,8.2512894 4.8017694,8.1735817 L6.41867421,5.47874034 C6.56074829,5.24195021 6.86787842,5.16516768 7.10466855,5.30724176 C7.17504336,5.34946664 7.23394226,5.40836554 7.27616714,5.47874034 Z" id="三角形-copy-2" fill="#FFFFFF" transform="translate(6.847458, 7.083371) rotate(-270.000000) translate(-6.847458, -7.083371) "></path>
                <path d="M12,6 L16.1464466,1.85355339 C16.3417088,1.65829124 16.6582912,1.65829124 16.8535534,1.85355339 C16.9473216,1.94732158 17,2.07449854 17,2.20710678 L17,12.9596876 C17,13.23583 16.7761424,13.4596876 16.5,13.4596876 C16.3864643,13.4596876 16.276309,13.4210472 16.1876525,13.350122 L12,10 L12,6 Z" id="矩形-copy-14" fill="#8590A6"></path>
            </g>
        </g>
    </g>
</svg>