<?xml version="1.0" encoding="UTF-8"?>
<svg width="18px" height="15px" viewBox="0 0 18 15" version="1.1" xmlns="http://www.w3.org/2000/svg" xmlns:xlink="http://www.w3.org/1999/xlink">
    <!-- Generator: Sketch 53.1 (72631) - https://sketchapp.com -->
    <title>合并形状 + 三角形 Mask Copy</title>
    <desc>Created with Sketch.</desc>
    <defs>
        <rect id="path-1" x="0" y="0" width="18" height="15" rx="1"></rect>
    </defs>
    <g id="web" stroke="none" stroke-width="1" fill="none" fill-rule="evenodd">
        <g id="专栏" transform="translate(-715.000000, -309.000000)">
            <g id="合并形状-+-三角形-Mask-Copy" transform="translate(715.000000, 309.000000)">
                <mask id="mask-2" fill="white">
                    <use xlink:href="#path-1"></use>
                </mask>
                <use id="Mask" fill="#FFFFFF" xlink:href="#path-1"></use>
                <path d="M6.03303501,13.5422279 L15.2114015,13.4022066 L10.5698215,6.60819818 L11.1943194,5.65371478 C11.4966969,5.19156077 12.1164721,5.06203625 12.5786261,5.36441368 C12.6883385,5.43619618 12.7828645,5.52885253 12.8568241,5.63710927 L19.1622833,14.8665834 C19.4738317,15.3226054 19.3567127,15.9448441 18.9006907,16.2563925 C18.7387747,16.3670115 18.5479087,16.4275841 18.3518363,16.4305753 L5.88327707,16.6207905 C5.33105658,16.629215 4.87656406,16.1883812 4.86813961,15.6361607 C4.86509367,15.4365003 4.92189206,15.2405001 5.03121939,15.0734041 L6.03303501,13.5422279 Z" id="合并形状" fill="#8590A6" mask="url(#mask-2)"></path>
                <path d="M6.62542489,3.2844568 L14.740337,15.1624771 C15.0518854,15.618499 14.9347664,16.2407378 14.4787445,16.5522862 C14.3168284,16.6629051 14.1259625,16.7234778 13.92989,16.726469 L-2.11672293,16.9712695 C-2.66894342,16.9796939 -3.12343594,16.5388602 -3.13186039,15.9866397 C-3.13490633,15.7869793 -3.07810794,15.5909791 -2.96878061,15.4238831 L4.9629202,3.30106231 C5.26529763,2.8389083 5.88507282,2.70938378 6.34722684,3.01176121 C6.45693929,3.08354371 6.55146526,3.17620006 6.62542489,3.2844568 Z" id="三角形" fill="#8590A6" mask="url(#mask-2)"></path>
                <rect id="矩形" stroke="#8590A6" mask="url(#mask-2)" x="0.5" y="0.5" width="17" height="14" rx="1"></rect>
            </g>
        </g>
    </g>
</svg>